<svg xmlns="http://www.w3.org/2000/svg" width="23.913" height="27.689" viewBox="0 0 23.913 27.689">
  <g id="Admin" transform="translate(-480.573 387)">
    <path id="Path_2" data-name="Path 2" d="M3.892,28.689H25.168a1.318,1.318,0,0,0,1.3-1.519l-1.233-8.024c-.252-3.989-3.723-5.63-7.743-5.63H11.564c-4.026,0-7.491,1.641-7.743,5.63L2.589,27.171a1.319,1.319,0,0,0,1.1,1.5A1.333,1.333,0,0,0,3.892,28.689Zm10.594-16.51a5.59,5.59,0,1,0-5.62-5.59A5.6,5.6,0,0,0,14.486,12.179Z" transform="translate(478 -388)" fill="#1c3988"/>
  </g>
</svg>
