<svg xmlns="http://www.w3.org/2000/svg" width="18.666" height="18.666" viewBox="0 0 18.666 18.666">
  <g id="Edit" transform="translate(0)">
    <path id="Path_43" data-name="Path 43" d="M16.764,6.359l-5.774,5.774a.664.664,0,0,0-.188.377l-.471,3.3a.667.667,0,0,0,.754.754l3.3-.471a.668.668,0,0,0,.377-.189l5.774-5.775Z" transform="translate(-4.775 -3.453)" fill="#bfbfbf"/>
    <path id="Path_44" data-name="Path 44" d="M26.819,5.023,23.991,2.2a.667.667,0,0,0-.943,0l-2,2L24.816,7.97l2-2A.667.667,0,0,0,26.819,5.023Z" transform="translate(-8.349 -2)" fill="#bfbfbf"/>
    <path id="Path_45" data-name="Path 45" d="M16,22.666H2.667A.667.667,0,0,1,2,22V8.667A.667.667,0,0,1,2.667,8H10a.667.667,0,0,1,0,1.333H3.333v12h12V14.666a.667.667,0,0,1,1.333,0V22A.667.667,0,0,1,16,22.666Z" transform="translate(-2 -4)" fill="#bfbfbf"/>
  </g>
</svg>
