<svg xmlns="http://www.w3.org/2000/svg" width="28.319" height="28.574" viewBox="0 0 28.319 28.574">
  <g id="Logout" transform="translate(-22 -22)">
    <g id="Group_6" data-name="Group 6" transform="translate(22 22)">
      <path id="Path_1" data-name="Path 1" d="M36.16,22a14.288,14.288,0,1,0,14.16,14.287A14.224,14.224,0,0,0,36.16,22Zm-.984,4.125h1.949v5.049H35.176Zm.984,18.253a8.24,8.24,0,0,1-8.119-8.339,8.35,8.35,0,0,1,4.907-7.659l.785,1.8a6.383,6.383,0,0,0-3.743,5.859,6.174,6.174,0,1,0,12.341,0,6.383,6.383,0,0,0-3.744-5.859l.784-1.8a8.35,8.35,0,0,1,4.908,7.659A8.24,8.24,0,0,1,36.16,44.378Z" transform="translate(-22 -22)" fill="#1c3988"/>
    </g>
  </g>
</svg>
