<svg xmlns="http://www.w3.org/2000/svg" width="27.096" height="34" viewBox="0 0 27.096 34"><path d="M26.3,18.223l-1.913,2.564a.574.574,0,0,1-.98-.1l-3.01-6.495a.574.574,0,0,0-1.059.04l-3.362,8.98a.574.574,0,0,0,.538.775H30.676a.574.574,0,0,0,.446-.935L27.2,18.205a.574.574,0,0,0-.906.018Z" transform="translate(-11.707 -7.302)"/><circle cx="1.412" cy="1.412" r="1.412" transform="translate(11.301 6.548)"/><path d="M27.265,50.41a1.079,1.079,0,0,0-.644-.148h-.7V51.5h.7a2.041,2.041,0,0,0,.315-.024.78.78,0,0,0,.263-.088.48.48,0,0,0,.183-.182.6.6,0,0,0,.069-.307A.808.808,0,0,0,27.4,50.6.428.428,0,0,0,27.265,50.41Z" transform="translate(-15.939 -22.712)"/><path d="M35.507,26.225V11.073l-.173-.169L26.917,2.669,26.744,2.5h-14.8A2.331,2.331,0,0,0,9.589,4.805V24.25A1.143,1.143,0,0,0,9,25.242v8.377A2.917,2.917,0,0,0,11.945,36.5H33.15A2.917,2.917,0,0,0,36.1,33.619v-6.4A1.143,1.143,0,0,0,35.507,26.225Zm-18.581,6.58a1.484,1.484,0,0,1-.389,1.12,1.457,1.457,0,0,1-1.053.367,1.416,1.416,0,0,1-.77-.192,1.889,1.889,0,0,1-.551-.563l.8-.576a1.486,1.486,0,0,0,.2.277.41.41,0,0,0,.315.115.263.263,0,0,0,.163-.048.34.34,0,0,0,.1-.122.553.553,0,0,0,.049-.159.951.951,0,0,0,.014-.163V29.085h1.124Zm4.235-.989a2.158,2.158,0,0,1-1.389.394h-.8v2.017H17.844V29.085h1.936a3.141,3.141,0,0,1,.743.083,1.64,1.64,0,0,1,.595.27,1.286,1.286,0,0,1,.4.488,1.677,1.677,0,0,1,.144.73A1.4,1.4,0,0,1,21.161,31.817Zm4.727,2.413H22.276V29.085H25.8v.94H23.4v1.051h1.753v.94l-1.753.007v1.268h2.488Zm4.552,0H29.57v-.4A1.621,1.621,0,0,1,29,34.2a1.99,1.99,0,0,1-.671.1,2.081,2.081,0,0,1-.975-.211,1.861,1.861,0,0,1-.657-.564,2.368,2.368,0,0,1-.371-.813,3.882,3.882,0,0,1-.118-.958,4.562,4.562,0,0,1,.118-1.041,2.5,2.5,0,0,1,.379-.871,1.9,1.9,0,0,1,.7-.6,2.289,2.289,0,0,1,1.06-.225,2.171,2.171,0,0,1,1.11.3,1.544,1.544,0,0,1,.452.416,2.5,2.5,0,0,1,.332.674l-1.046.27a1.588,1.588,0,0,0-.371-.536.913.913,0,0,0-.618-.183.722.722,0,0,0-.52.184,1.243,1.243,0,0,0-.3.457,2.211,2.211,0,0,0-.138.576,5.188,5.188,0,0,0-.032.534,3.983,3.983,0,0,0,.039.526,2.031,2.031,0,0,0,.15.54,1.108,1.108,0,0,0,.313.418.793.793,0,0,0,.523.168.946.946,0,0,0,.707-.274.919.919,0,0,0,.269-.576h-.966v-.94h2.072Zm3.889-8.165H21.42l-1.414-1.582a1.189,1.189,0,0,0-.886-.394H10.767V4.805a1.166,1.166,0,0,1,1.178-1.153H25.911v5.93a2.331,2.331,0,0,0,2.356,2.305h6.061Z" transform="translate(-9 -2.5)"/></svg>