<svg xmlns="http://www.w3.org/2000/svg" width="11.159" height="13.061" viewBox="0 0 11.159 13.061">
  <g id="Delete" transform="translate(0 0)">
    <g id="Group_215" data-name="Group 215" transform="translate(0 0)">
      <path id="Path_42" data-name="Path 42" d="M10.134,2.707,9.7,11.6a1.531,1.531,0,0,1-1.537,1.463H3.037A1.54,1.54,0,0,1,1.463,11.6l-.439-8.89H.476a.476.476,0,0,1,0-.951h2.3V1.317A1.312,1.312,0,0,1,4.1,0H7.061A1.312,1.312,0,0,1,8.378,1.317v.439H10.72a.454.454,0,0,1,.439.476.454.454,0,0,1-.439.476Zm-6.4-.951h3.7V1.317a.376.376,0,0,0-.366-.4H4.1a.376.376,0,0,0-.366.4Z" transform="translate(0 0)" fill="#eb1b24"/>
      <line id="Line_83" data-name="Line 83" x2="9.146" transform="translate(1.006 3.893)" fill="none" stroke="#fff" stroke-width="1"/>
    </g>
  </g>
</svg>
