<svg id="Edit" xmlns="http://www.w3.org/2000/svg" width="12.919" height="12.919" viewBox="0 0 12.919 12.919">
  <path id="Path_43" data-name="Path 43" d="M14.781,6.359l-4,4a.46.46,0,0,0-.13.261L10.328,12.9a.462.462,0,0,0,.522.522l2.283-.326a.462.462,0,0,0,.261-.131l4-4Z" transform="translate(-6.483 -4.348)" fill="#0693ff"/>
  <path id="Path_44" data-name="Path 44" d="M25.042,4.093,23.084,2.135a.461.461,0,0,0-.652,0L21.045,3.522l2.61,2.61,1.387-1.387A.461.461,0,0,0,25.042,4.093Z" transform="translate(-12.257 -2)" fill="#0693ff"/>
  <path id="Path_45" data-name="Path 45" d="M11.689,18.151H2.461A.461.461,0,0,1,2,17.69V8.461A.461.461,0,0,1,2.461,8H7.537a.461.461,0,0,1,0,.923H2.923v8.305h8.305V12.614a.461.461,0,1,1,.923,0V17.69A.461.461,0,0,1,11.689,18.151Z" transform="translate(-2 -5.232)" fill="#0693ff"/>
</svg>
