<svg xmlns="http://www.w3.org/2000/svg" width="20.651" height="11.455" viewBox="0 0 20.651 11.455">
  <g id="Eye" transform="translate(-6.525 -28.8)">
    <path id="Path_35" data-name="Path 35" d="M27.068,34.246l-.241-.3a15.909,15.909,0,0,0-2.763-2.575A12.317,12.317,0,0,0,16.82,28.8a12.317,12.317,0,0,0-7.243,2.575,15.5,15.5,0,0,0-2.709,2.575l-.241.3a.445.445,0,0,0,0,.563l.241.3A15.909,15.909,0,0,0,9.63,37.68a12.317,12.317,0,0,0,7.243,2.575,12.317,12.317,0,0,0,7.243-2.575A15.909,15.909,0,0,0,26.88,35.1l.241-.3A.539.539,0,0,0,27.068,34.246ZM16.847,38.914a4.4,4.4,0,1,1,4.4-4.4A4.385,4.385,0,0,1,16.847,38.914Z" transform="translate(0)" fill="#fff"/>
    <path id="Path_36" data-name="Path 36" d="M36.8,38.9a3,3,0,1,0,3,3A3,3,0,0,0,36.8,38.9Zm2.307,3A2.307,2.307,0,0,1,36.8,44.212a.452.452,0,0,1-.456-.456A.458.458,0,0,1,36.8,43.3a1.374,1.374,0,0,0,1.368-1.368.452.452,0,0,1,.456-.456A.438.438,0,0,1,39.112,41.9Z" transform="translate(-19.958 -7.391)" fill="#fff"/>
  </g>
</svg>
