<svg xmlns="http://www.w3.org/2000/svg" width="15.947" height="18.666" viewBox="0 0 15.947 18.666">
  <g id="Delete" transform="translate(0 0)">
    <g id="Group_215" data-name="Group 215" transform="translate(0 0)">
      <path id="Path_42" data-name="Path 42" d="M14.483,3.869l-.627,12.705a2.188,2.188,0,0,1-2.2,2.091H4.34a2.2,2.2,0,0,1-2.248-2.091L1.464,3.869H.68a.68.68,0,1,1,0-1.359H3.974V1.882A1.874,1.874,0,0,1,5.856,0h4.235a1.874,1.874,0,0,1,1.882,1.882V2.51h3.346a.648.648,0,0,1,.627.68.648.648,0,0,1-.627.68ZM5.333,2.51h5.281V1.882a.537.537,0,0,0-.523-.575H5.856a.537.537,0,0,0-.523.575Z" transform="translate(0 0)" fill="#f30404"/>
      <line id="Line_83" data-name="Line 83" x2="13.071" transform="translate(1.438 5.564)" fill="none" stroke="#fff" stroke-width="2"/>
    </g>
  </g>
</svg>
