<svg xmlns="http://www.w3.org/2000/svg" width="28.601" height="36.127" viewBox="0 0 28.601 36.127"><g transform="translate(0.001)"><g transform="translate(-0.001 0)"><path d="M39.759,29.683c-.775-.828-1.541-1.753-2.231-2.586-.325-.393-.636-.768-.927-1.109l-.021-.025a11.257,11.257,0,0,0,.724-2.829c.138-1.821-.074-2.994-.648-3.585a1.47,1.47,0,0,0-1.518-.363,1.957,1.957,0,0,0-1.227,1.355,7.058,7.058,0,0,0,1.053,5.63A40.767,40.767,0,0,1,32.7,30.843a10.832,10.832,0,0,0-3.989,2.211c-1.258,1.177-1.77,2.345-1.4,3.2a1.443,1.443,0,0,0,1.394.85,2.708,2.708,0,0,0,1.41-.451c1.192-.746,2.747-3.233,3.582-4.674a23.073,23.073,0,0,1,4.3-.808c.392-.036.781-.065,1.156-.085a7.887,7.887,0,0,0,3.9,2.545,3.9,3.9,0,0,0,.685.062,2.328,2.328,0,0,0,2.06-.952A1.36,1.36,0,0,0,45.78,31.3c-.634-1.052-2.547-1.63-5.387-1.63C40.188,29.673,39.977,29.676,39.759,29.683ZM29.326,35.5a1.307,1.307,0,0,1-.62.225.291.291,0,0,1-.064-.006c-.028-.138.074-.734,1.082-1.677a7.623,7.623,0,0,1,1.78-1.205A10.368,10.368,0,0,1,29.326,35.5Zm5.955-14.53c.105-.308.235-.448.317-.474l.005,0c.078.085.411.567.262,2.539a6.8,6.8,0,0,1-.26,1.3A5.257,5.257,0,0,1,35.281,20.97Zm2.576,8.83a25.489,25.489,0,0,0-3.24.512c.506-.967.974-1.948,1.365-2.857q.2.244.415.5c.472.57,1,1.21,1.551,1.836Zm6.672,2.195c.021.036.021.05.016.059a1.024,1.024,0,0,1-.812.261,2.415,2.415,0,0,1-.421-.039,4.844,4.844,0,0,1-2.116-1.2C43.441,31.176,44.348,31.694,44.53,31.995Z" transform="translate(-22.294 -13.352)"/><path d="M35.213,5H16.826a2.031,2.031,0,0,0-2.043,2.02V39.108a2.032,2.032,0,0,0,2.043,2.02H41.341a2.03,2.03,0,0,0,2.043-2.02V13.078Zm0,2.855L40.5,13.078H35.213Zm6.129,31.253H16.826V7.02H33.17v6.059a2.03,2.03,0,0,0,2.043,2.02h6.129v24.01Z" transform="translate(-14.783 -5)"/><path d="M36.2,68.738a1.448,1.448,0,0,0-.578-.309,3.575,3.575,0,0,0-.93-.094H33.369a.8.8,0,0,0-.564.173.737.737,0,0,0-.188.558v3.922a.765.765,0,0,0,.168.529.612.612,0,0,0,.889,0,.77.77,0,0,0,.172-.535V71.639h.845a2.276,2.276,0,0,0,1.49-.424,1.548,1.548,0,0,0,.515-1.254,1.836,1.836,0,0,0-.125-.693A1.4,1.4,0,0,0,36.2,68.738Zm-.855,1.64a.61.61,0,0,1-.323.214,2,2,0,0,1-.58.072h-.6V69.306h.6c.537,0,.754.107.841.194a.67.67,0,0,1,.171.481A.653.653,0,0,1,35.345,70.378Z" transform="translate(-25.341 -42.737)"/><path d="M48.362,68.82a1.758,1.758,0,0,0-.721-.386,3.747,3.747,0,0,0-.924-.1H45.375a.636.636,0,0,0-.73.73v3.731a1.605,1.605,0,0,0,.047.428.49.49,0,0,0,.23.3.917.917,0,0,0,.474.1h1.343a4.094,4.094,0,0,0,.646-.046,2.156,2.156,0,0,0,.548-.164,1.868,1.868,0,0,0,.473-.312,2.228,2.228,0,0,0,.447-.568,2.587,2.587,0,0,0,.256-.709,4.167,4.167,0,0,0,.082-.857A2.682,2.682,0,0,0,48.362,68.82Zm-.9,3.569a.742.742,0,0,1-.239.137,1.161,1.161,0,0,1-.278.064c-.094.009-.226.013-.393.013h-.682V69.347h.582a2.669,2.669,0,0,1,.776.1.915.915,0,0,1,.5.434,2.14,2.14,0,0,1,.213,1.077A1.8,1.8,0,0,1,47.465,72.389Z" transform="translate(-32.454 -42.736)"/><path d="M61.057,68.335H58.628a.951.951,0,0,0-.4.073.507.507,0,0,0-.255.253.947.947,0,0,0-.075.4V72.98a.77.77,0,0,0,.17.539.62.62,0,0,0,.888,0,.774.774,0,0,0,.17-.541V71.4h1.6a.61.61,0,0,0,.416-.129.452.452,0,0,0,.152-.355.458.458,0,0,0-.148-.355.6.6,0,0,0-.419-.132h-1.6v-1.1h1.932a.623.623,0,0,0,.433-.135.505.505,0,0,0,0-.722A.626.626,0,0,0,61.057,68.335Z" transform="translate(-40.315 -42.737)"/></g></g></svg>