<svg xmlns="http://www.w3.org/2000/svg" width="42.817" height="34.088" viewBox="0 0 42.817 34.088"><defs><style>.a{fill:#3080ec;}</style></defs><g transform="translate(0 0)"><path class="a" d="M27.024,24.835l6.052,5.928a1.311,1.311,0,1,1-1.835,1.873l-3.016-2.954v13.6a1.311,1.311,0,1,1-2.622,0V29.9l-3.016,2.955a1.311,1.311,0,0,1-1.835-1.873Zm9.717-5.33a10.736,10.736,0,0,1,5.848.393c4.124,1.489,6.828,6.98,5.29,12.158-1.524,5.131-5.673,7.872-12.191,8.161h-3.5a1.311,1.311,0,1,1,0-2.622h3.44c5.416-.241,8.557-2.316,9.736-6.287,1.146-3.858-.861-7.933-3.667-8.946a8.492,8.492,0,0,0-5.612.016l-1.485.474L34.39,21.31c-.845-6.14-3.659-8.677-8.8-8.111-5.214.574-8.007,4.01-8.535,10.727l-.114,1.452-1.432-.265a7.516,7.516,0,0,0-2.807,0c-2.741.524-4.58,2.259-4.58,6.572C8.122,35.8,11.2,37.6,14.84,37.6h6.218a1.311,1.311,0,1,1,0,2.622H14.84a11.178,11.178,0,0,1-5.467-1.433,7.738,7.738,0,0,1-3.873-7.1c0-5.727,2.842-8.409,6.71-9.148a10,10,0,0,1,2.371-.166c.919-7.053,4.536-11.1,10.722-11.777S35.411,13.016,36.741,19.505Z" transform="translate(-5.5 -10.5)"/></g></svg>