<?xml version="1.0" encoding="utf-8"?>
<!-- Generator: Adobe Illustrator 18.1.0, SVG Export Plug-In . SVG Version: 6.00 Build 0)  -->
<svg version="1.0" id="Layer_1" xmlns="http://www.w3.org/2000/svg" xmlns:xlink="http://www.w3.org/1999/xlink" x="0px" y="0px"
	 viewBox="0 0 150 150" enable-background="new 0 0 150 150" xml:space="preserve">
<g>
	<path fill="#00B04C" d="M102.8,30.1c0.3,0.2,0.7,0.4,1,0.5c0.5,0.2,1.1,0.2,1.7,0.1c1-0.2,1.8-0.8,2.2-1.6
		c-0.7-0.6-1.7-0.8-2.7-0.6c-0.5,0.1-0.9,0.3-1.2,0.5C103.4,29.3,103.1,29.7,102.8,30.1z"/>
	<path fill="#00B04C" d="M75.2,11.5c0.5-0.3,0.8-0.8,1.1-1.3c0.2-0.3,0.3-0.7,0.3-1.1c0.1-0.7,0-1.3-0.3-1.8C76.2,7,76,6.7,75.8,6.5
		c-0.6,0.4-1.1,1.1-1.3,1.9c0,0.2-0.1,0.3-0.1,0.5c0,0.5,0,0.9,0.1,1.3C74.6,10.6,74.8,11.1,75.2,11.5z"/>
	<path fill="#00B04C" d="M75.6,19.9c-0.4,0.2-0.8,0.5-1.2,0.8c-0.9,0.8-1.6,1.8-2,3c0,0.2-0.1,0.3-0.1,0.5c-0.1,0.7-0.1,1.5,0,2.2
		c0.1,0.8,0.5,1.6,0.9,2.3c0.4-0.2,0.8-0.4,1.1-0.7c0.8-0.7,1.5-1.6,1.9-2.6c0.1-0.2,0.1-0.3,0.1-0.5c0.3-1.2,0.3-2.5-0.1-3.6
		C76.1,20.7,75.9,20.3,75.6,19.9z"/>
	<path fill="#00B04C" d="M76.2,14.1c-0.3,1.2-0.3,2.4,0.1,3.6c0.2,0.5,0.4,0.9,0.7,1.3c0.4-0.2,0.8-0.4,1.2-0.8
		c0.9-0.8,1.6-1.8,2-3.1c0.5-1.7,0.1-3.5-0.8-4.9c-0.4,0.2-0.8,0.5-1.2,0.8c-0.8,0.7-1.5,1.6-1.9,2.6C76.2,13.8,76.2,13.9,76.2,14.1
		z"/>
	<path fill="#00B04C" d="M83.9,13c0.4-0.8,0.5-1.8,0.2-2.8c-0.4-0.9-1.1-1.6-2-1.9c-0.4,0.8-0.5,1.8-0.2,2.8
		C82.3,12,83,12.7,83.9,13z"/>
	<path fill="#00B04C" d="M69,12c0.1-1-0.4-1.9-1-2.6c-0.7,0.6-1.2,1.4-1.3,2.5c-0.1,1,0.3,1.9,1,2.6C68.5,13.9,69,13.1,69,12z"/>
	<path fill="#00B04C" d="M57.9,21.7c0.7,0.4,1.5,0.7,2.4,0.8c0.1,0,0.2,0,0.4,0c0.2-1.2,0.1-2.5-0.4-3.6c-0.2-0.4-0.4-0.8-0.7-1.2
		c-0.5-0.6-1-1.1-1.6-1.5c-0.9-0.5-1.8-0.8-2.7-0.9c-0.3,1.6,0,3.4,1.1,4.8C56.7,20.9,57.3,21.4,57.9,21.7z"/>
	<path fill="#00B04C" d="M60.3,15.3c0.4,0.7,1,1.1,1.7,1.4c0.4-0.8,0.5-1.8,0.2-2.8c-0.3-0.9-1-1.5-1.9-1.9c0,0-0.1,0-0.1,0
		c-0.4,0.8-0.5,1.8-0.2,2.8C60.1,15,60.2,15.2,60.3,15.3z"/>
	<path fill="#00B04C" d="M66.6,23.5c0.9-1.1,1.4-2.5,1.4-4c0-1.4-0.6-2.7-1.4-3.7c-0.2-0.3-0.5-0.5-0.8-0.8c-1.2,1.2-2,2.8-1.9,4.6
		c0.1,1.8,0.9,3.4,2.2,4.5C66.3,23.8,66.4,23.7,66.6,23.5z"/>
	<path fill="#00B04C" d="M72.4,18.2c0.4,0.3,0.7,0.5,1.2,0.8c0.4-0.6,0.7-1.3,0.9-2.1c0.2-0.8,0.2-1.7,0-2.5c0-0.1,0-0.2-0.1-0.3
		c-0.3-1.3-1.1-2.3-2-3.1c-0.4-0.3-0.8-0.5-1.2-0.8c-0.9,1.4-1.3,3.2-0.8,4.9C70.7,16.4,71.4,17.5,72.4,18.2z"/>
	<path fill="#00B04C" d="M83.3,22.9c0.4-0.2,0.8-0.5,1.2-0.8c0.9-0.8,1.7-1.8,2-3.1c0.5-1.8,0.1-3.5-0.8-4.9
		c-0.4,0.2-0.8,0.5-1.2,0.7c-0.9,0.8-1.6,1.8-2,3.1C82,19.7,82.3,21.5,83.3,22.9z"/>
	<path fill="#00B04C" d="M102.2,31.5c-1.4-0.5-3-0.5-4.4,0.2c-0.2,0.1-0.4,0.2-0.5,0.3c-0.1,0.1-0.3,0.1-0.4,0.2
		c-1.4,0.9-2.2,2.3-2.5,3.8c0.8,0.3,1.7,0.4,2.5,0.3c0.3,0,0.6-0.1,0.9-0.2c0.5-0.1,1-0.3,1.5-0.6C100.9,34.6,101.9,33.1,102.2,31.5
		z"/>
	<path fill="#00B04C" d="M97.8,26.7c-0.4,0.6-0.7,1.3-0.8,2c0.3,0.1,0.5,0.2,0.8,0.2c1.4,0.3,2.8,0.1,4.1-0.7c0.8-0.4,1.4-1,1.9-1.7
		c0.5-0.7,0.8-1.5,1-2.3c-0.3-0.1-0.7-0.2-1-0.3c-1.3-0.2-2.7,0-3.9,0.7C99,25.1,98.3,25.8,97.8,26.7z"/>
	<path fill="#00B04C" d="M97.8,18.8c0.1-0.1,0.3-0.1,0.4-0.2c0.9-0.5,1.4-1.3,1.6-2.2c-0.6-0.2-1.3-0.3-2-0.1
		c-0.3,0.1-0.5,0.2-0.8,0.3c0,0-0.1,0.1-0.1,0.1c-0.8,0.5-1.3,1.3-1.5,2.1c0.5,0.2,1,0.2,1.5,0.2C97.2,19,97.5,19,97.8,18.8z"/>
	<path fill="#00B04C" d="M97.8,21.9c-0.4,0.5-0.6,1.2-0.6,1.8c0.2,0,0.4,0,0.6,0c0.7,0,1.5-0.3,2.1-0.8c0.8-0.6,1.1-1.6,1.1-2.5
		c-0.9-0.1-1.9,0.1-2.7,0.8C98.1,21.5,97.9,21.7,97.8,21.9z"/>
	<path fill="#00B04C" d="M88,14.4c0.6-0.2,1.1-0.6,1.5-1.1c0.2-0.3,0.4-0.6,0.5-0.9c0.3-0.9,0.3-1.9-0.2-2.8c-0.1,0-0.2,0.1-0.3,0.2
		c-0.7,0.3-1.2,0.9-1.5,1.6c0,0.1-0.1,0.1-0.1,0.2c-0.3,0.9-0.3,1.8,0.1,2.6C88,14.2,88,14.3,88,14.4z"/>
	<path fill="#00B04C" d="M89.5,16.3c-0.7,1.3-0.9,2.8-0.6,4.2c0.2,0,0.4,0,0.6-0.1c0.7-0.1,1.4-0.4,2.1-0.8c0.6-0.4,1.2-0.9,1.7-1.6
		c1.1-1.5,1.4-3.2,1-4.9c-0.9,0.1-1.8,0.4-2.6,0.9c-0.6,0.4-1.2,0.9-1.7,1.6C89.7,15.9,89.6,16.1,89.5,16.3z"/>
	<path fill="#00B04C" d="M91.1,23c-0.8,0.8-1.3,1.8-1.6,2.8c-0.1,0.6-0.2,1.2-0.2,1.8c0.1,0,0.1,0,0.2,0c0.7,0,1.4-0.1,2.1-0.3
		c0.9-0.3,1.7-0.8,2.4-1.5c1.3-1.3,1.8-3,1.7-4.6c-1.5-0.1-3,0.3-4.2,1.3C91.4,22.7,91.2,22.9,91.1,23z"/>
	<path fill="#00B04C" d="M65.7,25.2c-0.4,0.8-0.5,1.8-0.2,2.8c0.2,0.6,0.6,1.1,1.1,1.4c0.3,0.2,0.6,0.4,0.9,0.5
		C68,29,68,28,67.7,27.1c-0.2-0.6-0.6-1.1-1.1-1.4C66.3,25.4,66,25.3,65.7,25.2z"/>
	<path fill="#00B04C" d="M88.8,48c-0.2-0.2-0.5-0.4-0.8-0.6c-0.6-0.3-1.2-0.4-1.8-0.4c-0.1,0.9,0.3,1.9,1,2.6
		c0.2,0.2,0.5,0.4,0.8,0.6c0.5,0.3,1,0.4,1.5,0.4c0.1,0,0.2,0,0.2,0c0-0.5-0.1-1-0.2-1.5C89.3,48.7,89.1,48.3,88.8,48z"/>
	<path fill="#00B04C" d="M57.9,28.8c0.7,0.4,1.5,0.6,2.4,0.7c0.4,0,0.8,0,1.2-0.1c0-1.3-0.4-2.5-1.2-3.6c-0.3-0.3-0.6-0.6-0.9-0.9
		c-0.4-0.4-1-0.7-1.5-1c-1.1-0.4-2.2-0.6-3.3-0.4c0,1.7,0.7,3.3,2.1,4.5C57.1,28.4,57.5,28.6,57.9,28.8z"/>
	<path fill="#00B04C" d="M53.3,48.9c0.1,0,0.3-0.1,0.4-0.1c0.9-0.3,1.6-1.1,2-1.9c-0.7-0.4-1.5-0.5-2.4-0.3c-0.1,0-0.3,0.1-0.4,0.1
		c-0.6,0.2-1.2,0.7-1.6,1.2c-0.2,0.2-0.3,0.5-0.4,0.8c0.1,0.1,0.3,0.1,0.4,0.2C51.9,49,52.6,49.1,53.3,48.9z"/>
	<path fill="#00B04C" d="M102.2,46.3c-0.9-0.4-1.9-0.4-2.8,0c0.3,0.9,0.9,1.7,1.8,2.1c0.9,0.4,1.8,0.4,2.6,0.1c0.1,0,0.1,0,0.2-0.1
		c-0.1-0.2-0.1-0.3-0.2-0.5C103.5,47.2,103,46.6,102.2,46.3z"/>
	<path fill="#00B04C" d="M103.8,36.5c-0.2-0.1-0.3-0.1-0.5-0.1c-1-0.1-2,0.1-2.7,0.7c0.5,0.8,1.3,1.4,2.3,1.5c0.3,0,0.6,0,0.8,0
		c0.7-0.1,1.3-0.3,1.8-0.8C105.3,37.3,104.6,36.8,103.8,36.5z"/>
	<path fill="#00B04C" d="M105.2,32.7c-0.5,0-1,0.2-1.4,0.5c-0.4,0.2-0.7,0.5-1,0.9c0.3,0.3,0.6,0.5,1,0.6c0.5,0.2,1.1,0.3,1.6,0.3
		c1-0.1,1.8-0.6,2.4-1.4C107.2,33,106.2,32.6,105.2,32.7z"/>
	<path fill="#00B04C" d="M45.3,44.9c-0.8,0-1.5,0.1-2.1,0.4c-0.9,0.4-1.7,0.9-2.4,1.7c0.6,0.7,1.5,1.3,2.4,1.7
		c0.7,0.3,1.4,0.4,2.1,0.4c1.6,0,3-0.6,4.1-1.6c0.2-0.1,0.3-0.3,0.5-0.5c-0.1-0.2-0.3-0.3-0.5-0.5C48.3,45.6,46.9,44.9,45.3,44.9z"
		/>
	<path fill="#00B04C" d="M103.8,40.1c-1-0.3-2-0.4-3-0.2c-1.2,0.2-2.2,0.8-3,1.6c-0.4,0.3-0.7,0.7-0.9,1.1c0,0.1-0.1,0.1-0.1,0.2
		c0,0,0.1,0.1,0.1,0.1c0.3,0.2,0.6,0.4,0.9,0.6c1.1,0.6,2.5,0.8,3.8,0.5c0.8-0.2,1.6-0.5,2.2-0.9c0.8-0.5,1.4-1.2,1.8-2
		C105.1,40.6,104.5,40.3,103.8,40.1z"/>
	<path fill="#00B04C" d="M93.3,48c1.3,0,2.5-0.4,3.6-1.2c0.3-0.2,0.6-0.5,0.9-0.8l0-0.1l0-0.1c-0.3-0.3-0.6-0.6-0.9-0.8
		c-1-0.7-2.2-1.2-3.6-1.2c-0.6,0-1.2,0.1-1.7,0.3c-0.8,0.2-1.5,0.6-2.1,1.1c-0.3,0.2-0.5,0.5-0.7,0.7c0.2,0.3,0.5,0.5,0.7,0.7
		c0.6,0.5,1.3,0.9,2.1,1.1C92.1,47.9,92.7,48,93.3,48z"/>
	<path fill="#00B04C" d="M49.4,28.9c0.6,0.2,1.3,0.3,1.9,0.4c0.6,0,1.1,0,1.7-0.2c-0.1-1.3-0.7-2.5-1.7-3.5
		c-0.3-0.3-0.6-0.5-0.9-0.7c-0.3-0.2-0.6-0.4-1-0.6c-1.2-0.5-2.6-0.6-3.9-0.3c0.2,1.7,1.1,3.2,2.6,4.3C48.5,28.5,49,28.7,49.4,28.9z
		"/>
	<path fill="#00B04C" d="M53.3,20.6c0,0,0.1,0,0.1,0.1c0.4-0.8,0.5-1.8,0.2-2.8c-0.1-0.2-0.2-0.4-0.3-0.6c-0.4-0.6-1-1.1-1.7-1.3
		c-0.1,0.2-0.2,0.5-0.3,0.7c-0.1,0.6-0.2,1.2,0,1.7c0,0.1,0.1,0.2,0.1,0.3C51.8,19.6,52.5,20.2,53.3,20.6z"/>
	<path fill="#00B04C" d="M49.4,22c0.6,0.3,1.3,0.3,1.9,0.2c0,0,0.1,0,0.1,0c0-0.2,0-0.4-0.1-0.7c-0.2-0.7-0.6-1.3-1.2-1.8
		c-0.2-0.2-0.4-0.3-0.7-0.4c-0.6-0.3-1.3-0.3-2-0.2c0.1,0.9,0.5,1.8,1.3,2.5C48.9,21.8,49.2,21.9,49.4,22z"/>
	<path fill="#00B04C" d="M55.7,35.2c0.7,0.5,1.4,0.8,2.2,0.9c0.8,0.2,1.6,0.1,2.4,0c0.1,0,0.2,0,0.3-0.1c0-0.5-0.1-0.9-0.3-1.3
		c-0.4-1.2-1.2-2.2-2.3-2.9c0,0-0.1-0.1-0.1-0.1c-1.4-0.9-3.1-1.2-4.7-0.8c0,0-0.1,0-0.1,0c0,0.2,0.1,0.5,0.1,0.7
		C53.6,33.1,54.4,34.4,55.7,35.2z"/>
	<path fill="#00B04C" d="M44.7,34.1c1.4,1,3.2,1.3,4.7,0.9c0.1,0,0.1,0,0.2,0c0-0.3-0.1-0.5-0.2-0.8c-0.3-1.4-1.2-2.6-2.4-3.5
		c-1.1-0.8-2.5-1.1-3.8-1c-0.4,0-0.7,0.1-1.1,0.2c0.1,1,0.5,2,1.1,2.8C43.6,33.2,44.1,33.7,44.7,34.1z"/>
	<path fill="#00B04C" d="M49.4,41.3c0.7,0.1,1.3,0.2,1.9,0.1c0.7-0.1,1.3-0.3,2-0.5c0.3-0.1,0.6-0.3,0.9-0.5
		c-0.2-0.5-0.5-0.9-0.9-1.3c-0.5-0.6-1.2-1.1-2-1.5c-0.3-0.1-0.7-0.3-1.1-0.4c-0.3-0.1-0.6-0.1-0.8-0.1c-1.5-0.2-2.9,0.2-4,1
		c0.8,1.5,2.1,2.6,3.9,3.1C49.3,41.3,49.4,41.3,49.4,41.3z"/>
	<path fill="#00B04C" d="M43.2,37.5c0.5-0.2,1-0.4,1.4-0.8c-0.3-0.5-0.8-0.9-1.4-1.1c-0.3-0.1-0.7-0.2-1-0.2c-1-0.1-1.9,0.3-2.6,0.9
		c0.6,0.8,1.4,1.3,2.4,1.4C42.4,37.7,42.8,37.6,43.2,37.5z"/>
	<path fill="#00B04C" d="M43.2,41.2c0.1-0.1,0.1-0.2,0.2-0.3c-0.1-0.1-0.1-0.1-0.2-0.1c-0.7-0.5-1.6-0.7-2.5-0.5
		c-1,0.2-1.8,0.8-2.3,1.6c0.7,0.6,1.7,0.8,2.7,0.7C42,42.4,42.7,41.9,43.2,41.2z"/>
	<path fill="#C07061" d="M66.6,34.7c2.2,3.1,4.7,6.4,5.8,11.3c0.2,0.9,0.4,1.9,0.5,3c-0.2-0.2-0.3-0.4-0.5-0.5
		c-1.9-2.1-3.8-3.7-5.8-5.1c-0.3-0.2-0.7-0.5-1-0.7c-1.8-3.5-2.2-7.6-5.3-11c-0.2-0.3-0.5-0.5-0.7-0.7c0.3,0.4,0.5,0.8,0.7,1.2
		c1.7,3.1,2,6.2,3.1,9.1c-1-0.6-2-1.2-3.1-1.8c-0.8-0.4-1.6-0.9-2.4-1.4c-1.4-0.8-3-1.8-4.7-2.8c-0.5-0.3-1-0.6-1.5-0.9
		c0,0.9,0.6,1.7,1.5,2.5c1.2,1.1,2.9,2.2,4.7,3.3c0.8,0.6,1.6,1.1,2.4,1.7c1,0.8,1.8,1.6,2.4,2.6c-0.4-0.1-1.3-0.3-2.4-0.6
		c-0.7-0.1-1.5-0.3-2.4-0.4c-1.4-0.2-3-0.4-4.7-0.5c-0.7-0.1-1.3-0.1-2-0.1c-0.6,0-1.3-0.1-1.9,0c-2.6,0-4.9,0.3-6.2,1.1
		c-0.1,0-0.1,0.1-0.2,0.1h0.2c2.1,0,4.2,0.1,6.2,0.3c0.7,0.1,1.3,0.1,1.9,0.2c0.7,0.1,1.3,0.2,2,0.3c1.6,0.3,3.2,0.7,4.7,1.1
		c0.8,0.3,1.6,0.6,2.4,0.9c2.5,1.1,3.9,3.7,6.3,4.4c0.8,0.2,2.2,0.2,3.1,1.2c1.2,1.3-1.6,3.8-3.4,5.9c-3.8,3.9-8.1,10.2-9.4,12.2
		c-0.5-0.2-1.1-0.5-1.6-0.6c1.6-2.7,7.8-13.1,11.7-14.6C63,53.5,53.7,67.1,53.7,67.1l-0.1,0.2c-0.6-7-3.9-7-3.9-7
		c2.4,1.6,1.7,10.5,1.7,10.5s9.7,2.6,14.8,12.9c-0.1-1.1-0.4-2.4-1-3.8l0,0c0,0,6.7-16.6,8-16.6c-1.8-1.8-9.1,14.3-9.1,14.3l0,0
		c-0.6-1.1-1.3-2.3-2.2-3.3c2.3-3.7,9.9-15.9,11.2-16.9c-2.1-0.9-9.9,11.8-12.2,15.7c-0.5-0.4-0.9-0.9-1.5-1.3c0.3-0.5,4.2-8.2,8-13
		c1.7-2,4.2-4.6,7-4.4c2.3,0.2,4.4,1.8,6.2,3.2c4.1,4.6,8.7,13.7,9,14.3c-0.5,0.4-1,0.8-1.4,1.3C85.9,69.4,78.1,56.7,76,57.6
		c1.3,0.9,8.9,13.1,11.2,16.9c-0.9,1-1.6,2.2-2.2,3.3v0c0,0-7.3-16-9.1-14.3c1.3,0,8,16.6,8,16.6l0,0c-0.5,1.4-0.8,2.7-1,3.8
		c5-10.4,14.8-12.9,14.8-12.9s-0.7-8.9,1.7-10.5c0,0-3.3,0-3.9,7l-0.1-0.2c0,0-9.3-13.6-13.2-11.9c3.8,1.5,10.1,11.9,11.7,14.6
		c-0.6,0.2-1.1,0.4-1.6,0.6c-1.6-2.4-7.2-10.8-11.4-14c-1.1-2.5-1.8-6.6,3.5-10.8c1.1-0.8,2.3-1.3,3.5-1.7c0.5-0.2,1-0.4,1.5-0.6
		c0.7-0.3,1.4-0.5,2.1-0.8c2.1-0.8,3.9-1.7,5.3-3.4c0.3-0.4,0.7-0.9,0.9-1.4c0.2-0.4,0.4-0.9,0.6-1.3c-0.2,0.1-0.4,0.3-0.6,0.4
		c-0.3,0.2-0.6,0.4-0.9,0.5c-1.5,0.8-3.3,1.4-5.3,2c-0.7,0.2-1.4,0.4-2.1,0.6c-0.5,0.1-0.9,0.2-1.3,0.4c0.4-0.7,0.8-1.4,1.3-2.1
		c0.6-0.8,1.3-1.7,2.1-2.5c0.8-0.9,1.8-1.7,2.8-2.4c-0.9,0.3-1.9,0.8-2.8,1.5c-0.7,0.5-1.4,1-2.1,1.6c-0.5,0.4-1,0.9-1.5,1.4
		c-1.2,1.2-2.3,2.4-3.3,3.6l-0.2,0.1c-2.5,0.9-4.8,2.1-6.3,3.8c-0.5,0.6-0.9,1.3-1.3,2c0-2.5,0.4-4.7,1.3-6.4c1.4-3,3.7-5.1,6.3-6.7
		c1.2-0.7,2.4-1.3,3.5-1.9c0.5-0.2,1-0.5,1.5-0.7c0.7-0.3,1.4-0.6,2.1-0.9c2.3-1,4-1.9,4-3.1c-1.2,1-2.6,1.5-4,1.8
		c-0.7,0.1-1.4,0.3-2.1,0.4c-0.5,0.1-1,0.1-1.5,0.2c-0.6,0.1-1.1,0.2-1.6,0.4c1.4-4.1,1.8-5.9,0.6-9.8c0,4.9-0.6,7.6-2.5,9.7
		c-0.4,0.5-0.9,1-1.5,1.5c-1.3,1.1-3.1,2-4.7,3.4c-0.7,0.5-1.3,1.1-1.9,1.8c-0.1,0.1-0.2,0.3-0.3,0.4c0-0.9,0.1-1.7,0.3-2.4
		c0.4-1.5,1.1-3,1.9-4.4c1.9-3.7,4-7.4,2-12.9c-0.2,3.3-1.1,5.7-2,7.6c-0.6,1.2-1.3,2.2-1.9,3.2c-0.7,1.1-1.3,2.3-1.7,3.5L74.4,32
		c-0.8-0.6-1.5-1.3-2.1-1.9c-3.5-3.9-2.9-7.3-2.1-12.7c-4.5,13.4,2.1,11.2,2.1,21.5c-2.1-2.8-4.1-4.8-5.7-6.8c-2.4-3-4-6.1-4-12.1
		C61.2,26.9,63.7,30.6,66.6,34.7z"/>
	<path fill="#C07061" d="M14.3,73.2c0,33.3,27,60.3,60.3,60.3c33.3,0,60.3-27,60.3-60.3c0-10.2-4.8-20.1-9.7-27.7h-0.8
		c4.5,8.2,7.2,17.6,7.2,27.7c0,8-1.6,15.6-4.6,22.6c-1.3,3-2.8,5.8-4.5,8.5c-0.9,1.4-1.9,2.7-2.9,4C111.6,103,99.9,93,97,85.4
		c2.2-3.5,6.2-8.9,6.2-12.3c0-3.4-1.3-10.6-1.3-14.3c-2.1,5.6,0.8,10.7-1,14.1c-2.5,4.6-6.4,9.7-7,13.2c1.4,7.2,12,19,20.8,27.6
		c-2.8,2.7-5.8,5.2-9.1,7.3c-1.6,1.1-3.3,2.1-5.1,2.9c-0.5,0.3-1,0.4-1.6,0.7c-3.6-10.7-11.6-33.2-15.2-32.6
		c-2.3,0.4-3.5-2.1-4.2-4.3h0c0,0,0.2-13.3-5-21.9c1.6,3.4,3.6,16.3,4.2,20.2c-0.5,6.9,3.5,8.6,5.5,9.3c1.7,0.6,8,22.2,10.6,31.1
		c-6.3,2.4-13.1,3.7-20.3,3.7c-7.2,0-14-1.3-20.3-3.8c2.5-8.8,8.9-30.5,10.6-31.1c1.9-0.7,5.9-2.4,5.5-9.3
		c0.6-3.9,2.6-16.8,4.2-20.2c-5.2,8.6-5,21.9-5,21.9c-0.6,2.2-1.8,4.7-4.1,4.3c-3.6-0.7-11.7,21.9-15.3,32.6
		c-0.5-0.3-1.1-0.4-1.6-0.7c-1.7-0.9-3.4-1.9-5.1-2.9c-3.2-2.1-6.2-4.5-8.9-7.2c8.7-8.6,19.3-20.6,20.6-27.7
		c-0.6-3.5-4.5-8.6-7-13.2c-1.8-3.4,1.1-8.5-1-14.1c0,3.7-1.3,10.9-1.3,14.3c0,3.4,4,8.7,6.2,12.3c-2.8,7.6-14.4,17.7-22.3,23.1
		c-1.1-1.4-2.1-2.8-3.1-4.2c-1.7-2.7-3.3-5.5-4.6-8.5c-3-6.9-4.6-14.5-4.6-22.5c0-10,2.6-19.5,7.2-27.7h-0.8
		C19,53.1,14.3,62.9,14.3,73.2z"/>
	<path fill="#00B04C" d="M141,72.7c0,9.3-1.9,18.2-5.4,26.3c-1.5,3.5-3.3,6.8-5.3,9.9c-2.5,3.9-5.5,7.5-8.7,10.8
		c-3.3,3.3-6.9,6.2-10.8,8.7c-1.9,1.2-3.9,2.4-5.9,3.4c-9.1,4.7-19.4,7.3-30.3,7.3c-10.9,0-21.2-2.6-30.3-7.3c-2-1-4-2.2-5.9-3.4
		c-3.9-2.5-7.5-5.4-10.8-8.7c-3.3-3.3-6.2-6.9-8.8-10.9c-2-3.1-3.8-6.4-5.3-9.9c-3.5-8-5.4-16.9-5.4-26.2c0-9.7,2.1-18.9,5.8-27.2
		h-1.6C8,53.5,4.3,62.9,4.3,72.7c0,38.8,31.5,70.3,70.3,70.3c38.8,0,70.3-31.5,70.3-70.3c0-9.7-3.7-19.2-8.2-27.2h-1.4
		C138.9,53.8,141,63,141,72.7z"/>
</g>
</svg>
